<?xml version="1.0" encoding="UTF-8" standalone="no"?>
<!-- Created with Inkscape (http://www.inkscape.org/) -->

<svg
   width="84.606544"
   height="93.082108"
   viewBox="0 0 22.385481 24.627974"
   version="1.1"
   id="svg1"
   inkscape:version="1.3.2 (091e20e, 2023-11-25, custom)"
   xml:space="preserve"
   sodipodi:docname="stack_icon.svg"
   xmlns:inkscape="http://www.inkscape.org/namespaces/inkscape"
   xmlns:sodipodi="http://sodipodi.sourceforge.net/DTD/sodipodi-0.dtd"
   xmlns="http://www.w3.org/2000/svg"
   xmlns:svg="http://www.w3.org/2000/svg"><sodipodi:namedview
     id="namedview1"
     pagecolor="#ffffff"
     bordercolor="#000000"
     borderopacity="0.25"
     inkscape:showpageshadow="2"
     inkscape:pageopacity="0.0"
     inkscape:pagecheckerboard="true"
     inkscape:deskcolor="#d1d1d1"
     inkscape:document-units="px"
     inkscape:zoom="4.155"
     inkscape:cx="20.818291"
     inkscape:cy="62.2142"
     inkscape:window-width="1920"
     inkscape:window-height="1027"
     inkscape:window-x="-8"
     inkscape:window-y="-8"
     inkscape:window-maximized="1"
     inkscape:current-layer="layer1" /><defs
     id="defs1" /><g
     inkscape:label="Layer 1"
     inkscape:groupmode="layer"
     id="layer1"
     transform="translate(-2.0364261,-0.91518021)"><path
       style="fill:#000000"
       d="M 11.031989,25.503863 C 9.1126452,25.334548 7.4543892,25.022893 6.1003232,24.577 4.0814052,23.91217 2.7672392,23.008199 2.2586292,21.934427 l -0.198941,-0.420003 -0.0185,-8.044132 C 2.0277482,7.6280549 2.0420272,5.3250978 2.0933482,5.0569539 2.1888282,4.5580742 2.3923152,4.177996 2.7992202,3.73849 3.8362642,2.6183586 5.9625262,1.7180478 8.6703362,1.252517 10.194823,0.99042484 11.189967,0.91678744 13.22866,0.91521624 c 1.905721,-0.00147 2.602884,0.04139 4.022066,0.24725866 3.273883,0.474915 5.839758,1.5928717 6.73589,2.9348401 0.475029,0.7113619 0.445181,0.064873 0.427155,9.251902 l -0.01614,8.227085 -0.200032,0.422335 c -0.787884,1.663485 -3.600867,2.893726 -7.813161,3.417037 -0.914352,0.113594 -4.411304,0.171211 -5.352442,0.08819 z m 5.290564,-1.076515 c 2.588839,-0.324567 4.758699,-0.986884 6.006817,-1.833491 0.45396,-0.307925 0.965782,-0.87408 1.048816,-1.160156 0.04204,-0.144854 0.05959,-0.824366 0.04788,-1.853914 l -0.01849,-1.625247 -0.369548,0.276452 c -1.086811,0.81302 -3.052053,1.535493 -5.137588,1.888706 -2.577227,0.436489 -5.67055,0.492558 -8.3225818,0.150854 -2.521908,-0.324939 -4.891602,-1.115443 -6.124818,-2.043173 l -0.434244,-0.326675 v 1.628916 c 0,1.818934 0.02364,1.960001 0.40683,2.427632 0.94162,1.149124 3.89785,2.195139 7.0494618,2.49434 0.374361,0.03554 0.778115,0.07564 0.89723,0.0891 0.550636,0.06224 4.2198,-0.02177 4.950235,-0.113344 z m 0,-5.073991 c 2.588839,-0.324567 4.758699,-0.986884 6.006817,-1.833491 0.454018,-0.307964 0.965807,-0.874114 1.048757,-1.160156 0.04254,-0.146694 0.0597,-0.887083 0.04788,-2.065348 l -0.01843,-1.836681 -0.367519,0.274965 c -1.345598,1.00673 -3.680193,1.747527 -6.655627,2.111916 -1.29549,0.158654 -5.030858,0.157601 -6.31155,-0.0018 -3.0256178,-0.376531 -5.4727338,-1.171598 -6.7241698,-2.184678 -0.141859,-0.11484 -0.274123,-0.2088 -0.29392,-0.2088 -0.0198,0 -0.03599,0.803082 -0.03599,1.784626 0,2.005411 0.02745,2.186342 0.400769,2.641933 0.94792,1.156812 3.894637,2.201654 7.0555228,2.501736 0.374361,0.03554 0.778115,0.07563 0.89723,0.0891 0.550636,0.06224 4.2198,-0.02177 4.950235,-0.113344 z m -0.835352,-5.421962 c 3.40307,-0.291404 6.223586,-1.199822 7.40988,-2.386538 0.540644,-0.540837 0.545859,-0.56543 0.526977,-2.4853429 l -0.01648,-1.6758356 -0.367519,0.2749707 c -1.345563,1.0067241 -3.680184,1.747531 -6.655627,2.1119215 -1.29549,0.158653 -5.030858,0.157601 -6.31155,-0.0018 C 7.0472632,9.3922414 4.6001472,8.5971748 3.3487112,7.5840942 3.2068522,7.4692543 3.0726232,7.3752944 3.0504252,7.3752944 c -0.0222,0 -0.03144,0.7727008 -0.02053,1.7171128 l 0.01984,1.7171138 0.16674,0.283626 c 0.771403,1.312163 3.776719,2.450063 7.4133078,2.806893 1.019126,0.1 3.842823,0.118214 4.857418,0.03133 z m 0,-5.0739919 C 18.890271,8.5659997 21.710787,7.6575818 22.897081,6.4708652 23.944302,5.4232702 23.46259,4.3783136 21.476865,3.3900559 18.276941,1.7975148 12.10008,1.3978616 7.6109192,2.492906 c -2.383736,0.5814663 -4.002874,1.4716535 -4.448937,2.4459842 -0.122079,0.2666538 -0.144947,0.3890969 -0.1115,0.596996 0.241603,1.5017583 3.421664,2.8822257 7.5793008,3.2901818 1.019126,0.099999 3.842823,0.1182144 4.857418,0.031335 z"
       id="path1" /></g></svg>
