<?xml version="1.0" encoding="UTF-8" standalone="no"?>
<!-- Created with Inkscape (http://www.inkscape.org/) -->

<svg
   width="100"
   height="100"
   viewBox="0 0 26.458333 26.458333"
   version="1.1"
   id="svg1"
   inkscape:version="1.3.2 (091e20e, 2023-11-25, custom)"
   xml:space="preserve"
   sodipodi:docname="Folder.svg"
   inkscape:export-filename="..\Folder.png"
   inkscape:export-xdpi="96"
   inkscape:export-ydpi="96"
   xmlns:inkscape="http://www.inkscape.org/namespaces/inkscape"
   xmlns:sodipodi="http://sodipodi.sourceforge.net/DTD/sodipodi-0.dtd"
   xmlns="http://www.w3.org/2000/svg"
   xmlns:svg="http://www.w3.org/2000/svg"><sodipodi:namedview
     id="namedview1"
     pagecolor="#ffffff"
     bordercolor="#000000"
     borderopacity="0.25"
     inkscape:showpageshadow="2"
     inkscape:pageopacity="0.0"
     inkscape:pagecheckerboard="true"
     inkscape:deskcolor="#d1d1d1"
     inkscape:document-units="px"
     inkscape:zoom="2.9380287"
     inkscape:cx="90.707079"
     inkscape:cy="100.91801"
     inkscape:window-width="1920"
     inkscape:window-height="1027"
     inkscape:window-x="-8"
     inkscape:window-y="-8"
     inkscape:window-maximized="1"
     inkscape:current-layer="layer1" /><defs
     id="defs1"><clipPath
       clipPathUnits="userSpaceOnUse"
       id="clipPath1"><rect
         style="fill:#808080;stroke:#808080;stroke-width:0.79375"
         id="rect2"
         width="47.886078"
         height="36.169273"
         x="-13.4998"
         y="-4.5848374" /></clipPath></defs><g
     inkscape:label="Layer 1"
     inkscape:groupmode="layer"
     id="layer1"><path
       style="fill:#000000;stroke:#000000;stroke-width:0.830295"
       d="m 1.7537065,21.661497 c -0.95284734,-0.2485 -1.04050444,-0.962316 -1.04050444,-8.473104 0,-9.0591456 -0.34862552,-8.5100945 5.40356944,-8.5100945 2.3675003,0 3.6121848,0.0904 4.1047395,0.2981225 0.388801,0.1639673 1.367241,1.0042515 2.174312,1.8672982 l 1.4674,1.5691758 h 3.3447 3.344701 l 0.835915,0.8787284 c 0.807129,0.8484696 0.884847,0.8787276 2.256956,0.8787276 1.547524,0 2.117538,0.316756 2.1037,1.169023 -0.0042,0.263226 -0.929929,2.604018 -2.057012,5.20176 -1.549367,3.571035 -2.177124,4.78936 -2.573495,4.994529 -0.393771,0.203825 -2.820676,0.265828 -9.750902,0.24912 -5.0746578,-0.01224 -9.4009933,-0.06771 -9.6140795,-0.123286 z M 22.823706,16.046848 c 1.104368,-2.567535 1.963161,-4.742388 1.90843,-4.833007 -0.05473,-0.09062 -4.241771,-0.164762 -9.304535,-0.164762 -7.0851412,0 -9.2622037,0.06324 -9.4533152,0.274603 -0.3640946,0.402676 -3.9166563,9.032794 -3.7981225,9.22665 0.055409,0.09062 4.2719869,0.164762 9.3701727,0.164762 h 9.26943 z M 3.4435822,14.563994 c 0.8205042,-1.993615 1.6445776,-3.797754 1.8312743,-4.009199 0.3109014,-0.352112 0.9878258,-0.385058 8.0491955,-0.391752 7.696081,-0.0073 7.708828,-0.0081 7.191125,-0.4393646 -0.465018,-0.387399 -0.859469,-0.432055 -3.816358,-0.432055 H 13.401082 L 11.600549,7.5341663 9.8000153,5.7767093 H 6.0977145 c -3.1367444,0 -3.7636699,0.055538 -4.1040422,0.3635712 -0.3706781,0.335459 -0.4017417,0.8314598 -0.4017417,6.4147175 0,3.328131 0.08096,5.957233 0.1799129,5.84245 0.098952,-0.114785 0.8512346,-1.839839 1.6717387,-3.833454 z"
       id="path2"
       sodipodi:nodetypes="ssssscccsscssssssscsscsssccscccsssss" /></g></svg>
