<?xml version="1.0" encoding="UTF-8" standalone="no"?>
<!-- Created with Inkscape (http://www.inkscape.org/) -->

<svg
   width="100"
   height="100"
   viewBox="0 0 26.458333 26.458333"
   version="1.1"
   id="svg1"
   inkscape:version="1.3.2 (091e20e, 2023-11-25, custom)"
   xml:space="preserve"
   sodipodi:docname="saveicon.svg"
   inkscape:export-filename="..\saveicon.png"
   inkscape:export-xdpi="96"
   inkscape:export-ydpi="96"
   xmlns:inkscape="http://www.inkscape.org/namespaces/inkscape"
   xmlns:sodipodi="http://sodipodi.sourceforge.net/DTD/sodipodi-0.dtd"
   xmlns="http://www.w3.org/2000/svg"
   xmlns:svg="http://www.w3.org/2000/svg"><sodipodi:namedview
     id="namedview1"
     pagecolor="#ffffff"
     bordercolor="#000000"
     borderopacity="0.25"
     inkscape:showpageshadow="2"
     inkscape:pageopacity="0.0"
     inkscape:pagecheckerboard="true"
     inkscape:deskcolor="#d1d1d1"
     inkscape:document-units="px"
     inkscape:zoom="4.155"
     inkscape:cx="12.154031"
     inkscape:cy="24.187726"
     inkscape:window-width="1920"
     inkscape:window-height="1027"
     inkscape:window-x="-8"
     inkscape:window-y="-8"
     inkscape:window-maximized="1"
     inkscape:current-layer="layer1" /><defs
     id="defs1" /><g
     inkscape:label="Layer 1"
     inkscape:groupmode="layer"
     id="layer1"><path
       style="fill:#000000"
       d="m 2.0070391,25.194262 c -0.221768,-0.113082 -0.51281,-0.354989 -0.646759,-0.537571 -0.241697,-0.32945 -0.24378,-0.415595 -0.274704,-11.357078 L 1.0544161,2.2745022 1.3231061,1.8723215 C 1.8944621,1.0171018 1.3787461,1.0589532 11.348294,1.0587494 l 8.938039,-1.827e-4 2.558792,2.5607761 2.558792,2.5607761 -0.03155,9.0723171 c -0.03118,8.965867 -0.03441,9.076212 -0.275097,9.40427 -0.13395,0.182574 -0.424991,0.424474 -0.646759,0.537556 -0.375226,0.191333 -1.154183,0.205605 -11.221734,0.205605 -10.0675499,0 -10.8465069,-0.01427 -11.2217329,-0.205605 z M 21.166272,19.632356 c 0,-5.199499 0.0011,-5.191083 -0.740662,-5.643365 -0.361897,-0.220662 -0.639518,-0.229563 -7.173279,-0.229985 -7.5007439,-4.85e-4 -7.2652489,-0.02304 -7.7306339,0.740223 -0.217607,0.356887 -0.229568,0.622625 -0.229985,5.109568 l -4.39e-4,4.733102 h 7.9374989 7.9375 z M 4.2329391,22.225232 v -0.587963 h -0.529166 -0.529167 v 0.587963 0.587963 h 0.529167 0.529166 z m 19.0499999,0 v -0.587963 h -0.529167 -0.529167 v 0.587963 0.587963 h 0.529167 0.529167 z m -4.030154,-12.4966745 0.325987,-0.325842 0.03613,-2.9667504 c 0.01987,-1.6317127 0.0031,-3.1446418 -0.03719,-3.3620647 C 19.537386,2.8564776 19.37801,2.5522067 19.223546,2.397743 L 18.942703,2.1168999 H 12.46072 5.9787371 l -0.343732,0.3437322 -0.343732,0.3437322 v 3.2505724 c 0,1.9953171 0.04655,3.3375552 0.120549,3.4758204 0.309104,0.5775669 0.316074,0.5781039 7.1381859,0.5499549 l 6.376791,-0.02631 z M 15.48263,8.8588749 c -0.149348,-0.1493485 -0.09005,-5.3897635 0.06272,-5.5425306 0.221978,-0.2219778 2.030416,-0.1870451 2.261138,0.043677 0.15665,0.1566502 0.184788,0.573862 0.184788,2.7399072 0,1.8305246 -0.04002,2.595136 -0.141111,2.6962301 -0.150191,0.1501912 -2.225091,0.2051554 -2.367531,0.062716 z"
       id="path1" /></g></svg>
