<?xml version="1.0" encoding="UTF-8" standalone="no"?>
<!-- Created with Inkscape (http://www.inkscape.org/) -->

<svg
   width="100"
   height="100"
   viewBox="0 0 26.458333 26.458333"
   version="1.1"
   id="svg1"
   inkscape:version="1.3.2 (091e20e, 2023-11-25, custom)"
   xml:space="preserve"
   sodipodi:docname="snap_icon.svg"
   inkscape:export-filename="..\snap_icon.png"
   inkscape:export-xdpi="96"
   inkscape:export-ydpi="96"
   xmlns:inkscape="http://www.inkscape.org/namespaces/inkscape"
   xmlns:sodipodi="http://sodipodi.sourceforge.net/DTD/sodipodi-0.dtd"
   xmlns="http://www.w3.org/2000/svg"
   xmlns:svg="http://www.w3.org/2000/svg"><sodipodi:namedview
     id="namedview1"
     pagecolor="#ffffff"
     bordercolor="#000000"
     borderopacity="0.25"
     inkscape:showpageshadow="2"
     inkscape:pageopacity="0.0"
     inkscape:pagecheckerboard="true"
     inkscape:deskcolor="#d1d1d1"
     inkscape:document-units="px"
     inkscape:zoom="2.9486353"
     inkscape:cx="-2.2044096"
     inkscape:cy="86.311115"
     inkscape:window-width="1920"
     inkscape:window-height="1027"
     inkscape:window-x="-8"
     inkscape:window-y="-8"
     inkscape:window-maximized="1"
     inkscape:current-layer="layer1" /><defs
     id="defs1" /><g
     inkscape:label="Layer 1"
     inkscape:groupmode="layer"
     id="layer1"><path
       style="fill:#000000;stroke-width:1.31116"
       d="M 2.3852252,23.252459 C 1.2356017,22.934192 0.42924061,22.104429 0.12153691,20.923075 -0.04391609,20.28786 -0.03890219,8.7659726 0.12717491,8.0359206 0.33435571,7.1250159 0.98375621,6.3407072 1.883948,5.9141894 L 2.3626404,5.6873809 4.9283419,5.651244 7.4940447,5.615107 7.8192737,4.9575349 c 0.405449,-0.8197652 0.478216,-0.91769 0.939448,-1.2642533 0.7335,-0.5511423 0.893902,-0.5716031 4.4810473,-0.5716031 3.585254,0 3.747839,0.020678 4.478375,0.5695928 0.470617,0.3536144 0.644936,0.5928958 0.980401,1.3457632 l 0.270683,0.6074807 2.573837,0.021432 2.573836,0.021432 0.478694,0.2268085 c 0.587639,0.2784281 1.01412,0.6530993 1.372816,1.2060444 0.511802,0.7889665 0.505158,0.6841665 0.481895,7.6013089 l -0.02066,6.14323 -0.167516,0.414791 c -0.360958,0.893779 -1.02536,1.565501 -1.859807,1.880295 l -0.429969,0.162206 -10.624172,0.01206 c -8.5144024,0.0097 -10.6914451,-0.0066 -10.9629266,-0.0817 z M 23.907642,21.558006 c 0.363167,-0.164928 0.582081,-0.385898 0.758386,-0.765507 0.127379,-0.274265 0.134345,-0.595285 0.135852,-6.258923 C 24.80298,10.258984 24.78011,8.4939826 24.72122,8.3180716 24.596818,7.9465386 24.323286,7.6195186 23.986205,7.439341 23.689605,7.2808003 23.625452,7.2770028 20.936846,7.2588374 18.446096,7.2420087 18.173643,7.2283988 18.009778,7.1126171 17.905932,7.0392431 17.629318,6.5878996 17.359318,6.0512817 17.062476,5.4613136 16.814426,5.062851 16.68549,4.968856 16.486709,4.8239425 16.397732,4.8201013 13.23974,4.8201013 c -3.157991,0 -3.2469683,0.00384 -3.4457503,0.1487547 -0.128939,0.093995 -0.376985,0.4924576 -0.673827,1.0824257 -0.269999,0.5366179 -0.546613,0.9879616 -0.65046,1.0613354 C 8.3058377,7.228398 8.0333847,7.2420092 5.5426347,7.2588374 2.8540288,7.2770024 2.7898762,7.2808004 2.4932755,7.439341 2.1561952,7.6195186 1.8826631,7.9465386 1.7582691,8.3180716 c -0.058897,0.175911 -0.081803,1.9409124 -0.080663,6.2155044 0.00144,5.663638 0.00852,5.984658 0.1358522,6.258923 0.1763042,0.379609 0.3952185,0.600579 0.7583857,0.765507 0.285069,0.129464 0.7027202,0.134735 10.6679,0.134735 9.965182,0 10.382833,-0.0052 10.667902,-0.134735 z M 12.161074,19.959514 C 10.774162,19.668047 9.4683277,18.853106 8.6535087,17.770518 7.4519747,16.174136 7.1432417,14.140926 7.8205627,12.285021 8.4690437,10.508143 10.02144,9.1248896 11.902684,8.6476756 c 0.685043,-0.173775 1.98907,-0.173775 2.674113,0 1.881243,0.477214 3.433642,1.8604674 4.082122,3.6373454 1.142155,3.12958 -0.559711,6.509484 -3.793029,7.532954 -0.570144,0.180472 -2.130918,0.262146 -2.704816,0.141539 z m 2.12285,-1.698631 c 1.289656,-0.335914 2.38372,-1.354616 2.874998,-2.676965 0.231564,-0.623287 0.229585,-1.965107 -0.0038,-2.621406 -0.449093,-1.26253 -1.392693,-2.185658 -2.686669,-2.628379 -0.368537,-0.126094 -0.633317,-0.160729 -1.228648,-0.160729 -0.595328,0 -0.860108,0.03464 -1.228644,0.160729 -1.293976,0.442721 -2.2375773,1.365849 -2.6866703,2.628379 -0.233451,0.656299 -0.235429,1.998119 -0.0038,2.621406 0.48748,1.312122 1.5715543,2.33116 2.8440263,2.673406 0.518398,0.139429 1.590782,0.141229 2.11934,0.0035 z"
       id="path1" /></g></svg>
